<svg width="38" height="38" xmlns="http://www.w3.org/2000/svg" version="1.1">

 <g>
  <title>Layer 1</title>
  <g stroke="null" id="surface1">
   <path stroke="null" id="svg_1" fill="rgb(99.215686%,80%,0%)" fill-rule="nonzero" d="m4.95183,17.31546l2.24604,0l0,-2.2495l-2.24604,0l0,2.2495zm0,0"/>
   <path stroke="null" id="svg_2" fill="rgb(99.215686%,80%,0%)" fill-rule="nonzero" d="m9.44739,17.31546l2.24604,0l0,-2.2495l-2.24604,0l0,2.2495zm0,0"/>
   <path stroke="null" id="svg_3" fill="rgb(99.215686%,80%,0%)" fill-rule="nonzero" d="m13.94293,17.31546l2.24604,0l0,-2.2495l-2.24604,0l0,2.2495zm0,0"/>
   <path stroke="null" id="svg_4" fill="rgb(99.215686%,80%,0%)" fill-rule="nonzero" d="m18.43849,17.31546l2.24604,0l0,-2.2495l-2.24604,0l0,2.2495zm0,0"/>
   <path stroke="null" id="svg_5" fill="rgb(100%,88.235294%,0%)" fill-rule="nonzero" d="m2.70232,34.17465l20.23172,0l0,-5.62203l-20.23172,0l0,5.62203zm0,0"/>
   <path stroke="null" id="svg_6" fill="rgb(100%,88.235294%,0%)" fill-rule="nonzero" d="m2.70232,28.55262l20.23172,0l0,-5.61858l-20.23172,0l0,5.61858zm0,0"/>
   <path stroke="null" id="svg_7" fill="rgb(100%,88.235294%,0%)" fill-rule="nonzero" d="m22.93404,22.93403l-20.23172,0l0,-4.49555c0,-0.61697 0.50606,-1.12303 1.12303,-1.12303l17.98568,0c0.61697,0 1.12302,0.50606 1.12302,1.12303l0,4.49555zm0,0"/>
   <path stroke="null" id="svg_8" fill="rgb(100%,100%,100%)" fill-rule="nonzero" d="m2.70232,34.17465l1.688,0l0,-5.62203l-1.688,0l0,5.62203zm0,0"/>
   <path stroke="null" id="svg_9" fill="rgb(100%,100%,100%)" fill-rule="nonzero" d="m2.70232,28.55262l1.688,0l0,-5.61858l-1.688,0l0,5.61858zm0,0"/>
   <path stroke="null" id="svg_10" fill="rgb(100%,100%,100%)" fill-rule="nonzero" d="m5.51334,17.31546l-1.688,0c-0.61697,0 -1.12303,0.50606 -1.12303,1.12303l0,4.49555l1.688,0l0,-4.49555c0,-0.61697 0.50258,-1.12303 1.12302,-1.12303"/>
   <path stroke="null" id="svg_11" fill="rgb(99.215686%,80%,0%)" fill-rule="nonzero" d="m27.42959,6.07484l2.24951,0l0,-2.2495l-2.24951,0l0,2.2495zm0,0"/>
   <path stroke="null" id="svg_12" fill="rgb(99.215686%,80%,0%)" fill-rule="nonzero" d="m31.92515,6.07484l2.2495,0l0,-2.2495l-2.2495,0l0,2.2495zm0,0"/>
   <path stroke="null" id="svg_13" fill="rgb(100%,88.235294%,0%)" fill-rule="nonzero" d="m26.30658,17.31546l8.9911,0l0,-5.62203l-8.9911,0l0,5.62203zm0,0"/>
   <path stroke="null" id="svg_14" fill="rgb(100%,88.235294%,0%)" fill-rule="nonzero" d="m26.30658,22.93403l8.9911,0l0,-5.61857l-8.9911,0l0,5.61857zm0,0"/>
   <path stroke="null" id="svg_15" fill="rgb(100%,88.235294%,0%)" fill-rule="nonzero" d="m26.30658,28.55262l8.9911,0l0,-5.61858l-8.9911,0l0,5.61858zm0,0"/>
   <path stroke="null" id="svg_16" fill="rgb(100%,88.235294%,0%)" fill-rule="nonzero" d="m26.30658,34.17465l8.9911,0l0,-5.62203l-8.9911,0l0,5.62203zm0,0"/>
   <path stroke="null" id="svg_17" fill="rgb(100%,88.235294%,0%)" fill-rule="nonzero" d="m35.29768,11.69343l-8.9911,0l0,-4.49556c0,-0.61697 0.50605,-1.12303 1.12302,-1.12303l6.74506,0c0.61698,0 1.12303,0.50606 1.12303,1.12303l0,4.49556zm0,0"/>
   <path stroke="null" id="svg_18" fill="rgb(100%,65.882353%,0%)" fill-rule="nonzero" d="m33.60968,17.31546l1.688,0l0,-5.62203l-1.688,0l0,5.62203zm0,0"/>
   <path stroke="null" id="svg_19" fill="rgb(100%,65.882353%,0%)" fill-rule="nonzero" d="m33.60968,22.93403l1.688,0l0,-5.61857l-1.688,0l0,5.61857zm0,0"/>
   <path stroke="null" id="svg_20" fill="rgb(100%,65.882353%,0%)" fill-rule="nonzero" d="m33.60968,28.55262l1.688,0l0,-5.61858l-1.688,0l0,5.61858zm0,0"/>
   <path stroke="null" id="svg_21" fill="rgb(100%,65.882353%,0%)" fill-rule="nonzero" d="m33.60968,34.17465l1.688,0l0,-5.62203l-1.688,0l0,5.62203zm0,0"/>
   <path stroke="null" id="svg_22" fill="rgb(100%,65.882353%,0%)" fill-rule="nonzero" d="m34.17466,6.07484l-1.688,0c0.62044,0 1.12302,0.50606 1.12302,1.12303l0,4.49556l1.688,0l0,-4.49556c0,-0.61697 -0.50605,-1.12303 -1.12303,-1.12303"/>
   <path stroke="null" id="svg_23" fill="rgb(0%,0%,0%)" fill-rule="nonzero" d="m35.29768,17.87698l-8.9911,0c-0.33969,0 -0.56152,-0.2253 -0.56152,-0.56152l0,-5.62203c0,-0.33622 0.22183,-0.56152 0.56152,-0.56152l8.9911,0c0.33621,0 0.56151,0.2253 0.56151,0.56152l0,5.62203c0,0.33622 -0.2253,0.56152 -0.56151,0.56152zm-8.4296,-1.1265l7.86809,0l0,-4.49555l-7.86809,0l0,4.49555zm0,0"/>
   <path stroke="null" id="svg_24" fill="rgb(0%,0%,0%)" fill-rule="nonzero" d="m35.29768,23.49555l-8.9911,0c-0.33969,0 -0.56152,-0.2253 -0.56152,-0.56152l0,-5.61857c0,-0.33968 0.22183,-0.56498 0.56152,-0.56498l8.9911,0c0.33621,0 0.56151,0.2253 0.56151,0.56498l0,5.61857c0,0.33622 -0.2253,0.56152 -0.56151,0.56152zm-8.4296,-1.12303l7.86809,0l0,-4.49555l-7.86809,0l0,4.49555zm0,0"/>
   <path stroke="null" id="svg_25" fill="rgb(0%,0%,0%)" fill-rule="nonzero" d="m35.29768,29.11413l-8.9911,0c-0.33969,0 -0.56152,-0.22183 -0.56152,-0.56151l0,-5.61858c0,-0.33621 0.22183,-0.56151 0.56152,-0.56151l8.9911,0c0.33621,0 0.56151,0.2253 0.56151,0.56151l0,5.61858c0,0.33968 -0.2253,0.56151 -0.56151,0.56151zm-8.4296,-1.12303l7.86809,0l0,-4.49555l-7.86809,0l0,4.49555zm0,0"/>
   <path stroke="null" id="svg_26" fill="rgb(0%,0%,0%)" fill-rule="nonzero" d="m35.29768,34.73617l-8.9911,0c-0.33969,0 -0.56152,-0.2253 -0.56152,-0.56152l0,-5.62203c0,-0.33622 0.22183,-0.56152 0.56152,-0.56152l8.9911,0c0.33621,0 0.56151,0.2253 0.56151,0.56152l0,5.62203c0,0.33622 -0.2253,0.56152 -0.56151,0.56152zm-8.4296,-1.1265l7.86809,0l0,-4.49555l-7.86809,0l0,4.49555zm0,0"/>
   <path stroke="null" id="svg_27" fill="rgb(0%,0%,0%)" fill-rule="nonzero" d="m29.67911,6.63636l-2.24951,0c-0.33622,0 -0.56151,-0.2253 -0.56151,-0.56152l0,-2.2495c0,-0.33622 0.22529,-0.56151 0.56151,-0.56151l2.24951,0c0.33621,0 0.56151,0.22529 0.56151,0.56151l0,2.2495c0,0.33622 -0.2253,0.56152 -0.56151,0.56152zm-1.688,-1.12303l1.12303,0l0,-1.12302l-1.12303,0l0,1.12302zm0,0"/>
   <path stroke="null" id="svg_28" fill="rgb(0%,0%,0%)" fill-rule="nonzero" d="m34.17466,6.63636l-2.2495,0c-0.33622,0 -0.56152,-0.2253 -0.56152,-0.56152l0,-2.2495c0,-0.33622 0.2253,-0.56151 0.56152,-0.56151l2.2495,0c0.33622,0 0.56152,0.22529 0.56152,0.56151l0,2.2495c0,0.33622 -0.2253,0.56152 -0.56152,0.56152zm-1.688,-1.12303l1.12302,0l0,-1.12302l-1.12302,0l0,1.12302zm0,0"/>
   <path stroke="null" id="svg_29" fill="rgb(0%,0%,0%)" fill-rule="nonzero" d="m7.19787,17.87698l-2.24604,0c-0.33968,0 -0.56151,-0.2253 -0.56151,-0.56152l0,-2.2495c0,-0.33622 0.22183,-0.56152 0.56151,-0.56152l2.24604,0c0.33622,0 0.56151,0.2253 0.56151,0.56152l0,2.2495c0,0.33622 -0.22529,0.56152 -0.56151,0.56152zm-1.68453,-1.1265l1.12303,0l0,-1.12302l-1.12303,0l0,1.12302zm0,0"/>
   <path stroke="null" id="svg_30" fill="rgb(0%,0%,0%)" fill-rule="nonzero" d="m11.69343,17.87698l-2.24604,0c-0.33969,0 -0.56152,-0.2253 -0.56152,-0.56152l0,-2.2495c0,-0.33622 0.22183,-0.56152 0.56152,-0.56152l2.24604,0c0.33968,0 0.56151,0.2253 0.56151,0.56152l0,2.2495c0,0.33622 -0.22183,0.56152 -0.56151,0.56152zm-1.68453,-1.1265l1.12302,0l0,-1.12302l-1.12302,0l0,1.12302zm0,0"/>
   <path stroke="null" id="svg_31" fill="rgb(0%,0%,0%)" fill-rule="nonzero" d="m16.18898,17.87698l-2.24604,0c-0.33621,0 -0.56151,-0.2253 -0.56151,-0.56152l0,-2.2495c0,-0.33622 0.2253,-0.56152 0.56151,-0.56152l2.24604,0c0.33968,0 0.56151,0.2253 0.56151,0.56152l0,2.2495c0,0.33622 -0.22183,0.56152 -0.56151,0.56152zm-1.68453,-1.1265l1.12303,0l0,-1.12302l-1.12303,0l0,1.12302zm0,0"/>
   <path stroke="null" id="svg_32" fill="rgb(0%,0%,0%)" fill-rule="nonzero" d="m20.68453,17.87698l-2.24604,0c-0.33622,0 -0.56151,-0.2253 -0.56151,-0.56152l0,-2.2495c0,-0.33622 0.22529,-0.56152 0.56151,-0.56152l2.24604,0c0.33968,0 0.56498,0.2253 0.56498,0.56152l0,2.2495c0,0.33622 -0.2253,0.56152 -0.56498,0.56152zm-1.68453,-1.1265l1.12303,0l0,-1.12302l-1.12303,0l0,1.12302zm0,0"/>
   <path stroke="null" id="svg_33" fill="rgb(0%,0%,0%)" fill-rule="nonzero" d="m35.29768,12.25494l-8.9911,0c-0.33969,0 -0.56152,-0.22183 -0.56152,-0.56151l0,-4.49556c0,-0.95318 0.72789,-1.68453 1.68453,-1.68453l6.74506,0c0.95318,0 1.68453,0.73135 1.68453,1.68453l0,4.49556c0,0.33968 -0.2253,0.56151 -0.56151,0.56151zm-8.4296,-1.12303l7.86809,0l0,-3.93404c0,-0.33622 -0.2253,-0.56151 -0.56152,-0.56151l-6.74506,0c-0.33622,0 -0.56151,0.22529 -0.56151,0.56151l0,3.93404zm0,0"/>
   <path stroke="null" id="svg_34" fill="rgb(0%,0%,0%)" fill-rule="nonzero" d="m22.93404,34.73617l-20.23172,0c-0.33621,0 -0.56151,-0.2253 -0.56151,-0.56152l0,-5.62203c0,-0.33622 0.2253,-0.56152 0.56151,-0.56152l20.23172,0c0.33622,0 0.56152,0.2253 0.56152,0.56152l0,5.62203c0,0.33622 -0.2253,0.56152 -0.56152,0.56152zm-19.6702,-1.1265l19.1087,0l0,-4.49555l-19.1087,0l0,4.49555zm0,0"/>
   <path stroke="null" id="svg_35" fill="rgb(0%,0%,0%)" fill-rule="nonzero" d="m22.93404,29.11413l-20.23172,0c-0.33621,0 -0.56151,-0.22183 -0.56151,-0.56151l0,-5.61858c0,-0.33621 0.2253,-0.56151 0.56151,-0.56151l20.23172,0c0.33622,0 0.56152,0.2253 0.56152,0.56151l0,5.61858c0,0.33968 -0.2253,0.56151 -0.56152,0.56151zm-19.6702,-1.12303l19.1087,0l0,-4.49555l-19.1087,0l0,4.49555zm0,0"/>
   <path stroke="null" id="svg_36" fill="rgb(0%,0%,0%)" fill-rule="nonzero" d="m22.93404,23.49555l-20.23172,0c-0.33621,0 -0.56151,-0.2253 -0.56151,-0.56152l0,-4.49555c0,-0.95665 0.73135,-1.688 1.68453,-1.688l17.98568,0c0.95318,0 1.68453,0.73135 1.68453,1.688l0,4.49555c0,0.33622 -0.2253,0.56152 -0.56152,0.56152zm-19.6702,-1.12303l19.1087,0l0,-3.93404c0,-0.33622 -0.22529,-0.56151 -0.56151,-0.56151l-17.98568,0c-0.33622,0 -0.56151,0.22529 -0.56151,0.56151l0,3.93404zm0,0"/>
  </g>
 </g>
</svg>